<?xml version="1.0" standalone="no"?>
<!DOCTYPE svg PUBLIC "-//W3C//DTD SVG 20010904//EN"
 "http://www.w3.org/TR/2001/REC-SVG-20010904/DTD/svg10.dtd">
<svg version="1.0" xmlns="http://www.w3.org/2000/svg"
 width="3464.000000pt" height="3464.000000pt" viewBox="0 0 3464.000000 3464.000000"
 preserveAspectRatio="xMidYMid meet">

<g transform="translate(0.000000,3464.000000) scale(0.100000,-0.100000)"
fill="#000000" stroke="none">
<path d="M24265 32650 c-22 -5 -91 -13 -153 -18 -92 -8 -123 -15 -168 -38 -31
-16 -63 -39 -71 -51 -9 -13 -25 -23 -36 -23 -11 0 -29 -7 -39 -17 -17 -15 -19
-15 -36 0 -35 32 -186 15 -229 -25 -24 -23 -30 -62 -12 -74 6 -3 35 -7 65 -8
30 -1 59 -7 65 -13 17 -17 1 -71 -23 -79 -35 -11 -101 -61 -183 -138 -76 -73
-81 -76 -127 -76 -27 0 -77 -9 -112 -20 -52 -17 -65 -26 -78 -53 -8 -18 -27
-39 -42 -46 -23 -13 -28 -12 -45 3 -23 21 -70 15 -113 -15 -14 -11 -29 -19
-33 -19 -4 0 -24 -12 -46 -27 -42 -30 -59 -70 -58 -138 0 -59 19 -94 64 -119
50 -29 73 -66 81 -139 7 -56 6 -57 -19 -57 -14 0 -36 4 -49 9 -13 5 -78 12
-144 16 -118 6 -119 6 -143 -19 -18 -19 -22 -31 -17 -53 19 -75 18 -89 -6
-118 l-24 -28 -56 36 c-31 19 -65 45 -76 57 -36 38 -74 51 -172 57 -89 5 -97
4 -130 -19 -44 -30 -50 -70 -19 -145 18 -45 34 -64 87 -104 36 -27 74 -49 86
-50 67 -4 107 0 119 10 8 6 17 8 20 4 13 -13 7 -42 -10 -48 -10 -3 -30 -23
-44 -44 -17 -24 -57 -56 -108 -86 -88 -52 -95 -60 -106 -117 -13 -68 17 -130
111 -229 46 -49 89 -100 94 -114 6 -16 6 -43 0 -76 -6 -28 -7 -63 -3 -78 10
-44 45 -97 80 -121 51 -35 42 -86 -32 -196 -29 -43 -31 -64 -10 -104 15 -30
61 -60 90 -60 22 0 57 -38 53 -58 -2 -12 -17 -19 -46 -23 -45 -6 -64 -22 -98
-85 -16 -28 -29 -40 -48 -42 -15 -2 -43 -20 -64 -41 -70 -71 -147 -94 -251
-76 -44 8 -46 7 -82 -35 -40 -46 -42 -46 -187 -49 -41 -1 -49 -6 -126 -83 -95
-95 -109 -118 -131 -216 -14 -63 -21 -75 -56 -103 -22 -17 -51 -52 -66 -77
-44 -76 -102 -139 -143 -156 -48 -19 -180 -146 -180 -172 1 -45 48 -68 120
-58 40 5 51 3 69 -15 28 -28 26 -43 -9 -63 -48 -28 -70 -73 -70 -149 0 -104
48 -145 120 -104 38 22 62 18 102 -19 20 -18 52 -39 70 -45 57 -22 63 -27 61
-60 -1 -36 -60 -114 -107 -142 -17 -10 -47 -38 -66 -63 -19 -24 -58 -59 -87
-77 -98 -63 -98 -126 0 -191 l37 -25 -32 -48 c-27 -40 -41 -51 -82 -63 -27 -7
-59 -12 -70 -9 -71 16 -153 41 -164 49 -6 6 -27 14 -44 17 -27 5 -33 12 -35
34 -1 15 -8 40 -16 55 -67 126 -96 172 -131 207 -23 22 -47 58 -55 80 -28 82
-75 102 -191 84 -58 -9 -87 -8 -164 6 -78 14 -103 15 -152 5 -33 -7 -65 -17
-71 -22 -26 -21 -14 -58 33 -102 36 -33 45 -47 40 -63 -9 -27 -37 -34 -109
-26 -35 4 -80 1 -112 -7 -88 -21 -107 10 -60 98 14 26 25 63 25 82 0 47 -58
232 -78 248 -10 8 -50 12 -112 12 -122 0 -152 15 -198 95 -38 68 -53 81 -107
96 -78 21 -96 62 -46 108 62 58 76 134 34 197 -25 39 -46 45 -181 49 -137 5
-239 18 -256 35 -5 5 -16 33 -23 60 -10 40 -10 55 0 71 11 19 17 20 112 12
206 -17 289 -5 350 48 47 41 78 126 70 193 l-5 51 52 40 c37 28 66 41 98 45
40 4 45 8 45 30 0 20 -7 26 -41 36 -22 6 -55 19 -72 28 -35 18 -122 22 -138 6
-15 -15 -110 -28 -128 -18 -32 18 -19 64 30 112 56 53 75 63 137 71 52 7 67
26 67 85 0 44 -10 59 -52 81 -22 11 -48 35 -59 53 -19 33 -21 34 -98 37 -69 4
-81 7 -100 29 -11 14 -20 30 -21 36 0 5 -13 28 -29 50 -16 21 -33 57 -37 79
-5 27 -18 49 -41 70 -19 16 -45 51 -58 76 -21 41 -24 62 -27 198 l-3 152 31
27 c17 15 38 32 48 37 21 13 47 85 39 113 -3 11 -23 33 -45 47 -33 22 -39 30
-33 48 21 67 18 86 -19 119 -28 25 -36 39 -36 67 -1 59 -17 113 -43 138 l-24
24 -23 -53 c-12 -29 -31 -64 -41 -77 -11 -13 -19 -27 -19 -31 0 -5 25 -22 55
-39 62 -35 65 -46 35 -112 -11 -24 -20 -61 -20 -81 0 -33 -5 -41 -40 -64 -46
-31 -48 -36 -19 -56 32 -21 37 -102 10 -146 -36 -56 -101 -69 -101 -20 0 13 7
32 15 42 22 30 18 62 -11 85 -15 12 -31 21 -36 21 -12 0 -47 41 -48 56 0 7 -9
31 -20 55 -37 83 -17 139 65 179 24 12 59 35 76 51 l31 29 -43 40 c-24 21 -52
39 -62 40 -10 0 -47 -27 -81 -60 -81 -77 -102 -79 -179 -11 -41 36 -62 48 -77
44 -31 -8 -73 -57 -91 -105 -13 -36 -19 -43 -40 -40 -13 1 -35 14 -49 27 -14
13 -40 38 -58 55 -32 29 -33 32 -27 85 5 35 3 72 -5 100 -11 38 -18 46 -49 56
-20 6 -55 29 -78 50 -24 22 -46 39 -51 39 -5 0 -15 -11 -22 -25 -8 -14 -30
-36 -49 -48 -62 -38 -99 -76 -94 -98 4 -12 -3 -26 -18 -38 l-24 -20 -35 39
c-36 39 -81 60 -132 60 -21 0 -44 13 -81 49 -89 83 -126 90 -203 38 l-49 -32
0 -79 c-1 -94 -6 -99 -105 -116 -77 -13 -87 -25 -76 -86 5 -24 26 -53 71 -98
62 -60 65 -66 65 -110 0 -42 -5 -52 -42 -91 -24 -25 -50 -66 -59 -92 -14 -41
-18 -45 -25 -28 -23 57 -84 124 -112 125 -25 0 -82 -32 -82 -46 0 -19 -28 -18
-47 2 -17 17 -21 17 -157 -13 l-78 -18 8 -45 c11 -63 9 -127 -5 -144 -7 -8
-39 -32 -72 -53 -32 -21 -59 -42 -59 -48 -1 -19 -61 -99 -88 -117 -16 -11 -46
-18 -74 -18 -41 0 -51 4 -84 40 -21 22 -47 40 -58 40 -32 0 -103 39 -121 66
-22 34 -13 54 43 89 58 37 70 61 82 172 15 134 28 225 35 255 6 24 1 34 -42
75 -27 27 -52 53 -54 59 -11 30 -46 23 -129 -26 -47 -28 -96 -50 -110 -50 -58
0 -186 100 -221 173 -22 46 -23 49 -8 105 10 37 12 69 7 92 -4 19 -15 76 -23
125 -19 109 -48 159 -96 169 -42 8 -49 -3 -47 -79 2 -85 -9 -124 -38 -135 -46
-18 -54 -5 -54 87 l0 85 40 37 c42 38 51 72 29 112 -5 11 -49 58 -95 105 -47
47 -92 100 -100 119 -10 25 -18 32 -33 28 -24 -6 -69 -127 -86 -233 -7 -41
-20 -93 -28 -115 l-15 -39 39 -45 c49 -55 50 -84 4 -144 -19 -25 -35 -50 -35
-56 0 -29 -34 -91 -50 -91 -9 0 -29 -9 -44 -21 l-26 -21 30 -41 c17 -23 59
-73 95 -112 35 -38 77 -85 92 -103 21 -25 39 -35 68 -39 44 -6 65 -18 65 -39
0 -7 9 -29 21 -48 18 -32 26 -36 60 -36 43 0 82 -30 77 -58 -2 -9 -16 -23 -31
-32 -25 -14 -30 -13 -58 3 -37 21 -77 22 -98 3 -20 -18 -145 -66 -189 -73 -21
-3 -41 1 -58 12 -36 23 -54 16 -84 -35 -21 -36 -36 -48 -78 -65 -61 -24 -92
-48 -92 -73 0 -17 9 -23 77 -55 17 -9 37 -26 44 -39 7 -12 26 -36 42 -53 41
-41 83 -136 95 -218 6 -38 20 -87 31 -108 12 -23 21 -59 21 -84 0 -50 11 -60
90 -91 59 -23 77 -39 84 -77 4 -18 9 -43 12 -57 9 -45 -79 -78 -116 -45 -10 9
-33 18 -51 21 -28 5 -41 0 -74 -26 -33 -27 -46 -31 -75 -26 -118 20 -137 19
-150 -4 -13 -25 -17 -94 -6 -127 4 -12 34 -45 67 -72 64 -54 118 -72 150 -52
36 22 75 13 103 -23 14 -19 26 -39 26 -44 0 -5 19 -31 42 -57 42 -47 42 -47
42 -130 1 -75 -2 -86 -23 -109 -18 -19 -38 -27 -84 -32 -85 -10 -141 -53 -145
-113 -4 -49 22 -139 53 -185 17 -26 33 -34 99 -51 61 -16 90 -31 137 -68 32
-26 65 -62 73 -81 7 -18 28 -43 45 -55 17 -13 45 -49 61 -82 17 -32 39 -63 49
-69 23 -12 74 -14 116 -5 17 3 54 11 83 16 43 9 55 16 68 40 14 28 13 32 -6
58 -12 18 -19 41 -17 62 2 31 6 34 38 37 23 2 40 -2 49 -12 7 -9 19 -16 26
-16 8 0 14 -6 14 -13 0 -7 16 -35 34 -62 19 -28 52 -84 73 -125 32 -62 38 -85
38 -136 0 -97 -31 -134 -115 -134 -55 0 -78 -27 -86 -102 -6 -55 -10 -61 -52
-94 -35 -26 -54 -34 -88 -34 -50 0 -74 -8 -74 -24 0 -7 -13 -27 -29 -45 -26
-28 -46 -37 -143 -63 -209 -54 -244 -85 -288 -255 -20 -80 -62 -89 -96 -20 -8
18 -36 51 -62 74 -47 42 -47 42 -48 107 -1 79 -10 91 -99 136 -64 33 -75 43
-55 55 16 10 12 42 -6 49 -20 8 -73 -40 -74 -65 0 -30 -30 -44 -96 -44 -57 0
-67 3 -89 27 -14 15 -25 34 -25 41 0 18 -18 32 -46 39 -31 8 -40 -1 -61 -57
-20 -52 -52 -78 -84 -67 -23 9 -87 62 -167 136 -48 46 -65 70 -73 102 -13 50
-30 67 -83 84 -51 16 -81 0 -109 -60 -26 -54 -30 -139 -7 -150 8 -4 28 -13 45
-21 16 -8 41 -32 56 -53 14 -22 36 -43 47 -47 14 -5 23 -21 28 -45 5 -29 28
-58 110 -140 112 -112 118 -125 84 -182 -16 -26 -26 -32 -52 -32 -18 1 -73 -1
-123 -4 -89 -5 -90 -6 -125 -44 -21 -23 -55 -46 -85 -57 -99 -35 -123 -52
-134 -91 -8 -28 -7 -43 4 -65 8 -15 15 -35 15 -44 0 -24 -50 -85 -69 -85 -9 0
-29 23 -46 50 -17 29 -40 53 -53 56 -24 7 -109 -13 -118 -27 -10 -17 -69 -9
-97 14 -24 19 -28 31 -33 97 -5 58 -2 79 9 95 15 20 16 20 72 0 37 -12 61 -16
69 -9 7 5 34 25 60 44 26 19 49 45 53 58 9 37 -13 93 -53 135 -33 35 -38 37
-98 37 -51 0 -75 -6 -123 -31 -62 -32 -83 -59 -83 -104 0 -29 2 -28 -53 -14
-31 7 -49 20 -66 45 l-24 35 18 95 c10 52 22 97 26 100 5 3 9 14 9 25 0 11 9
41 21 66 38 84 9 124 -85 120 -60 -2 -65 0 -106 36 -45 42 -112 76 -146 77
-11 0 -48 9 -82 21 -60 20 -64 20 -105 4 -86 -34 -99 -73 -42 -124 20 -17 39
-31 44 -31 20 0 29 -47 18 -94 -9 -40 -8 -56 8 -102 l19 -55 -28 -55 c-27 -52
-27 -56 -11 -80 9 -14 26 -30 39 -35 32 -15 90 -123 82 -155 -9 -36 -65 -57
-128 -49 -42 6 -52 12 -72 44 -12 20 -25 43 -28 51 -6 17 -122 60 -161 60 -34
0 -72 -47 -88 -109 -16 -65 -38 -71 -80 -23 -34 39 -33 25 -13 199 6 51 6 53
-22 63 -16 7 -42 14 -59 17 -16 2 -40 10 -53 16 -18 8 -44 7 -115 -7 -51 -10
-127 -19 -170 -19 -85 -2 -107 -15 -107 -64 0 -71 -61 -118 -163 -126 -37 -2
-74 -10 -81 -17 -12 -9 -17 -7 -28 12 -23 43 -63 151 -78 214 -6 23 -22 53
-36 67 -22 22 -36 27 -96 29 l-70 3 -17 45 c-14 39 -21 45 -47 48 -33 3 -54
-18 -68 -68 -4 -14 -12 -35 -18 -46 -7 -15 -7 -37 0 -68 9 -42 8 -48 -11 -57
-15 -9 -34 -8 -75 2 -60 14 -79 8 -99 -33 -18 -36 -45 -157 -44 -196 1 -31 -1
-33 -26 -30 -21 2 -29 10 -33 30 -3 14 -17 36 -32 47 l-27 21 -25 -25 -25 -25
21 -35 c20 -35 20 -37 3 -98 -27 -99 -27 -118 -2 -167 34 -67 92 -93 203 -92
66 0 89 4 104 17 19 17 40 93 40 145 0 20 5 30 15 30 8 0 15 -7 15 -15 0 -11
12 -15 48 -15 66 0 77 14 46 55 -51 68 -31 85 162 134 17 5 44 6 62 3 17 -2
45 3 63 12 41 21 49 20 49 -3 0 -12 12 -23 33 -32 56 -22 87 -49 87 -74 0 -31
-32 -49 -74 -41 -33 6 -121 -17 -194 -51 -44 -21 -122 -91 -122 -110 0 -8 -12
-26 -27 -41 -31 -30 -63 -88 -63 -113 0 -9 -16 -32 -35 -52 -43 -45 -84 -49
-112 -13 -48 61 -172 87 -214 45 -18 -18 -20 -28 -14 -78 5 -42 3 -60 -7 -68
-34 -26 -47 -22 -97 29 -40 40 -54 49 -73 45 -112 -29 -153 -35 -165 -25 -20
16 20 55 68 68 96 26 109 89 40 190 -23 33 -41 69 -41 81 0 30 -15 53 -65 103
-72 71 -56 116 40 116 24 0 44 9 67 30 32 29 33 30 11 36 -13 3 -23 12 -23 20
0 7 -16 21 -36 30 -45 21 -51 38 -31 78 40 79 33 91 -68 101 -38 4 -105 21
-148 37 -53 20 -87 28 -105 23 -124 -30 -184 -122 -162 -246 23 -124 117 -257
233 -328 44 -27 49 -60 13 -96 -36 -36 -67 -40 -140 -15 -68 22 -87 37 -151
119 -50 63 -109 93 -335 168 -149 50 -174 56 -255 56 -49 1 -109 -3 -133 -7
-37 -8 -55 -4 -148 34 l-106 43 -72 -13 c-39 -7 -82 -18 -96 -25 -70 -35 -235
-38 -275 -5 -22 18 -45 64 -45 90 0 24 42 101 66 121 25 20 112 12 203 -20 47
-16 111 -34 141 -40 30 -5 62 -12 71 -16 8 -3 27 4 42 15 21 17 27 30 27 60 0
45 -23 68 -91 90 -25 9 -64 35 -95 66 -45 44 -61 53 -113 63 -78 15 -91 33
-91 126 0 52 5 78 20 103 11 17 24 32 28 32 16 0 32 51 32 100 0 48 1 50 29
50 21 0 38 -10 60 -35 17 -20 31 -40 31 -45 0 -13 171 -176 222 -212 35 -24
54 -49 81 -104 20 -40 56 -95 81 -123 25 -29 46 -56 46 -61 0 -23 60 -75 114
-100 34 -15 70 -37 81 -50 39 -44 72 -53 163 -46 100 8 137 27 127 63 -9 38
-53 104 -101 153 -24 25 -58 61 -76 81 -23 25 -50 41 -89 53 -42 12 -63 25
-83 50 -18 24 -46 42 -96 61 -43 17 -77 36 -86 51 -19 28 -15 86 11 157 17 47
17 47 -8 85 -14 21 -49 58 -77 83 -29 24 -72 63 -97 87 -24 23 -77 59 -116 78
-40 20 -79 42 -87 49 -22 19 -199 119 -238 134 -22 9 -52 11 -92 7 -48 -6 -75
-2 -147 20 -69 20 -121 28 -243 34 -156 8 -211 20 -239 54 -23 28 -10 50 122
206 31 37 57 77 57 88 0 35 -27 52 -81 52 -67 0 -107 -18 -163 -75 -46 -47
-47 -47 -96 -41 -64 9 -109 -11 -135 -60 -10 -20 -56 -71 -102 -114 -89 -84
-107 -118 -78 -150 10 -11 27 -20 37 -20 11 0 42 -7 69 -16 46 -15 55 -15 119
0 101 25 136 7 105 -53 -35 -69 -115 -110 -188 -98 -47 7 -149 79 -170 119
-27 51 -93 80 -195 88 -74 6 -85 9 -115 37 -45 45 -74 53 -190 54 -89 1 -109
-2 -159 -24 -55 -25 -58 -25 -68 -7 -6 12 -6 37 1 76 11 60 6 135 -17 244 -8
36 -14 68 -14 72 0 4 -20 30 -44 57 -31 34 -49 68 -61 108 -20 72 -12 54 -69
151 -28 47 -72 104 -102 131 -58 53 -88 64 -224 81 -87 10 -102 15 -150 48
-28 19 -44 23 -79 19 -53 -6 -82 -33 -88 -82 -3 -30 -18 -53 -69 -108 -36 -39
-83 -101 -105 -138 -42 -70 -64 -84 -106 -68 -13 5 -48 9 -77 9 -69 0 -111 29
-101 69 8 35 19 44 95 84 62 33 66 37 93 103 21 52 40 79 77 112 78 68 101
176 51 241 l-18 24 -34 -21 c-19 -11 -128 -117 -244 -234 -337 -342 -400 -409
-685 -728 -41 -46 -88 -98 -103 -114 -16 -17 -81 -96 -145 -176 -64 -79 -128
-156 -141 -170 -99 -106 -354 -421 -422 -521 -23 -34 -50 -72 -60 -83 -51 -59
-138 -172 -202 -264 -40 -57 -103 -146 -141 -199 -108 -152 -313 -459 -372
-560 -30 -51 -65 -105 -77 -120 -38 -47 -147 -222 -197 -317 -68 -130 -139
-252 -186 -321 -46 -67 -172 -285 -256 -445 -31 -58 -80 -150 -109 -205 -105
-197 -278 -554 -361 -740 -44 -100 -60 -134 -113 -250 -190 -413 -523 -1288
-496 -1304 8 -5 288 -1 816 12 78 2 121 8 147 20 31 14 69 17 240 16 112 0
266 -1 343 -1 308 0 1240 21 1390 32 120 8 221 8 401 0 211 -10 253 -9 335 5
76 13 171 16 524 15 402 -1 434 0 494 19 47 15 80 19 125 15 94 -8 686 13 729
26 25 7 200 12 525 15 892 7 1231 14 1317 30 56 10 162 14 355 14 281 1 520
13 600 31 141 32 257 40 534 36 155 -2 293 -7 308 -10 15 -4 49 -1 75 5 26 6
176 13 333 15 157 3 371 7 475 10 105 2 379 4 609 4 363 -1 429 2 485 16 75
19 382 23 661 9 205 -11 214 -11 294 4 46 8 72 9 79 2 16 -16 -10 -65 -61
-113 -26 -24 -59 -57 -74 -73 -14 -17 -37 -39 -50 -51 -12 -11 -37 -36 -54
-55 -17 -18 -61 -58 -97 -87 -103 -84 -100 -81 -329 -308 -146 -144 -223 -214
-235 -212 -9 2 -30 22 -46 46 -45 67 -69 75 -257 83 -210 10 -380 -4 -480 -37
-41 -14 -84 -31 -95 -38 -11 -7 -76 -69 -145 -137 -121 -121 -126 -127 -164
-219 -34 -85 -38 -102 -34 -160 4 -47 14 -83 37 -128 29 -58 37 -66 91 -90 36
-16 59 -33 60 -43 0 -9 -16 -30 -36 -48 l-36 -33 7 -67 c8 -85 -5 -99 -102
-112 -37 -5 -86 -13 -108 -19 -22 -5 -53 -10 -68 -10 -16 0 -59 -13 -95 -29
-48 -21 -97 -33 -170 -41 -56 -6 -137 -18 -178 -26 -42 -7 -94 -14 -117 -14
-23 -1 -67 -10 -97 -21 -87 -32 -155 -47 -305 -69 -179 -26 -218 -35 -263 -65
-37 -24 -155 -50 -292 -65 -42 -4 -87 -18 -127 -38 -42 -22 -77 -32 -106 -32
-24 0 -70 -9 -103 -20 -32 -11 -84 -23 -114 -26 -30 -4 -86 -21 -125 -39 -102
-48 -159 -65 -215 -65 -28 0 -91 -13 -143 -30 -63 -20 -115 -30 -158 -30 -35
0 -109 -7 -164 -16 -55 -8 -132 -19 -172 -24 -47 -6 -90 -19 -128 -39 -37 -20
-73 -31 -99 -31 -23 0 -86 -7 -141 -15 -55 -9 -140 -20 -190 -25 -57 -6 -114
-19 -155 -36 -49 -20 -92 -29 -170 -35 -405 -30 -494 -43 -548 -79 -26 -17
-63 -31 -91 -34 -97 -12 -172 -36 -229 -74 -31 -22 -75 -48 -97 -60 -44 -22
-224 -202 -248 -248 -20 -37 -104 -118 -178 -169 -182 -127 -222 -160 -318
-255 -96 -96 -151 -171 -151 -209 0 -8 -17 -53 -39 -100 -21 -47 -46 -107 -55
-133 -10 -26 -32 -60 -51 -76 -31 -28 -40 -30 -147 -37 -62 -4 -142 -4 -178
-1 -36 3 -249 10 -475 16 -431 10 -587 21 -611 41 -18 15 -208 18 -345 5 -81
-7 -108 -6 -175 10 -63 15 -110 18 -229 16 -109 -1 -167 2 -213 13 -43 11
-130 17 -280 20 -448 9 -521 14 -601 41 l-74 25 -216 -11 c-119 -6 -225 -13
-237 -16 -11 -3 -63 4 -115 14 -51 11 -134 20 -183 21 -143 3 -206 50 -206
156 0 59 -24 105 -69 131 -42 25 -41 56 4 90 20 15 41 36 46 46 16 29 12 127
-6 178 -26 74 -30 186 -10 288 15 81 16 115 6 358 -6 148 -15 298 -20 334 -5
36 -9 157 -10 270 0 143 -5 234 -17 300 -10 60 -18 176 -21 313 -3 119 -8 217
-11 217 -4 0 -16 -28 -27 -63 -15 -47 -20 -92 -21 -187 -1 -69 -4 -134 -7
-145 -4 -11 -22 -30 -39 -42 -27 -19 -37 -36 -55 -100 -35 -122 -69 -251 -86
-333 -9 -41 -28 -129 -43 -195 -15 -66 -33 -154 -41 -195 -8 -41 -18 -93 -22
-115 -17 -81 -50 -282 -56 -335 -4 -30 -13 -95 -22 -145 -38 -229 -66 -461
-59 -489 3 -11 0 -28 -5 -38 -15 -27 -27 -102 -44 -268 -8 -80 -19 -188 -25
-240 -6 -52 -19 -212 -29 -355 -54 -736 -68 -1195 -52 -1689 18 -549 50 -1037
95 -1451 13 -121 27 -228 31 -238 6 -14 14 -17 29 -12 11 4 50 11 86 17 36 5
90 16 120 25 33 10 119 19 215 23 128 6 170 12 213 29 34 13 70 20 105 19 44
-2 61 3 105 31 51 32 60 34 180 41 82 4 143 13 172 24 25 10 65 21 90 26 25 5
67 18 94 30 36 17 66 22 124 21 98 -1 194 15 243 40 21 10 60 22 86 25 27 3
84 14 127 25 54 13 117 19 195 19 67 1 145 7 186 16 39 9 98 18 133 21 50 4
74 12 115 39 50 33 54 34 153 34 80 0 117 5 185 26 46 15 116 30 154 35 39 4
90 15 115 25 34 13 80 18 185 20 77 1 160 5 185 9 38 5 48 3 63 -13 39 -43 -6
-102 -77 -102 -63 0 -238 -31 -281 -50 -22 -9 -53 -22 -68 -29 -16 -6 -90 -18
-165 -26 -251 -27 -391 -54 -440 -82 -35 -21 -65 -28 -131 -34 -257 -21 -411
-47 -470 -78 -10 -6 -70 -20 -133 -31 -63 -11 -130 -25 -149 -30 -18 -6 -54
-10 -79 -10 -25 0 -86 -13 -135 -29 -70 -22 -124 -32 -240 -40 -82 -7 -167
-16 -187 -22 -20 -5 -67 -12 -105 -15 -49 -3 -84 -13 -125 -34 -40 -21 -72
-30 -105 -30 -138 0 -332 -38 -418 -82 -39 -20 -76 -28 -172 -37 -142 -13
-153 -16 -153 -45 1 -43 43 -349 60 -436 6 -30 15 -82 20 -115 37 -237 65
-393 121 -660 16 -77 36 -174 45 -215 8 -41 19 -88 23 -105 5 -16 16 -64 26
-105 9 -41 25 -109 36 -150 10 -41 35 -140 55 -220 93 -375 202 -742 356
-1200 89 -262 95 -279 196 -555 54 -148 151 -391 193 -482 10 -24 19 -45 19
-48 0 -6 72 -177 110 -260 10 -22 30 -69 45 -105 15 -36 52 -117 82 -180 30
-63 64 -137 76 -165 56 -130 189 -385 206 -395 24 -12 50 -3 135 46 48 29 80
40 156 51 78 11 106 21 160 53 36 22 83 46 106 53 22 8 67 29 101 45 33 17
112 43 174 57 75 17 130 36 159 55 49 31 144 60 197 60 41 0 96 22 134 54 29
25 140 56 198 56 17 0 72 22 124 50 52 27 114 57 138 66 24 10 69 34 99 53 49
31 65 35 147 42 77 5 100 11 138 35 118 73 124 76 210 83 52 5 93 15 107 25
76 55 104 70 174 98 44 16 104 34 134 38 31 4 69 14 85 22 17 9 55 23 85 33
30 9 85 35 121 56 52 31 81 41 144 49 101 13 104 14 180 62 54 33 78 41 157
53 51 7 125 25 163 40 58 23 85 28 155 27 176 -1 240 -23 240 -81 0 -48 -35
-76 -172 -144 -105 -52 -147 -67 -198 -72 -45 -5 -96 -22 -170 -56 -58 -26
-141 -57 -184 -68 -43 -12 -97 -32 -120 -45 -23 -13 -73 -33 -112 -45 -39 -12
-82 -29 -95 -39 -67 -51 -102 -65 -186 -73 -57 -6 -97 -16 -117 -29 -62 -40
-133 -69 -203 -84 -40 -8 -112 -33 -160 -56 -49 -23 -116 -50 -150 -61 -34
-11 -65 -24 -68 -29 -16 -26 -100 -61 -190 -79 -70 -15 -114 -30 -154 -54 -46
-28 -73 -36 -151 -46 -78 -10 -105 -19 -151 -47 -31 -18 -87 -47 -123 -64 -37
-16 -91 -45 -120 -65 -40 -27 -69 -37 -127 -45 -103 -15 -142 -26 -213 -64
-43 -23 -88 -37 -146 -45 -87 -13 -116 -24 -185 -71 -22 -14 -76 -39 -120 -54
-44 -16 -99 -42 -122 -58 -33 -24 -57 -32 -120 -39 -111 -12 -125 -17 -117
-43 6 -21 78 -167 112 -228 11 -18 34 -60 52 -93 99 -180 177 -314 309 -533
80 -133 151 -250 156 -260 16 -27 38 -61 210 -322 549 -832 1080 -1508 1779
-2265 126 -137 674 -688 811 -815 196 -183 235 -219 305 -280 41 -36 115 -101
165 -146 222 -198 807 -671 1014 -819 23 -16 66 -48 95 -70 202 -151 646 -456
886 -610 41 -27 104 -67 140 -90 127 -82 525 -319 705 -420 61 -34 130 -73
155 -87 182 -102 614 -324 875 -448 223 -107 316 -150 320 -150 2 0 47 -20
100 -45 170 -80 543 -234 885 -365 693 -265 1425 -487 2195 -665 61 -14 126
-30 145 -35 48 -12 316 -69 415 -87 44 -8 100 -18 125 -23 61 -12 516 -90 560
-96 19 -3 80 -12 135 -20 55 -8 134 -19 175 -25 41 -6 102 -14 135 -19 56 -9
399 -45 650 -70 219 -21 549 -41 1010 -61 385 -16 1312 1 1645 31 63 5 178 15
255 21 362 27 848 83 1210 138 66 10 433 74 560 97 44 8 116 21 160 28 266 46
1010 225 1345 323 85 25 169 49 185 53 54 14 128 37 225 68 52 17 169 54 259
82 91 28 168 53 173 56 4 3 79 30 165 60 87 30 187 66 223 79 246 90 321 119
458 176 51 21 95 39 98 39 3 0 36 13 72 29 37 15 112 47 167 70 55 24 114 49
130 56 17 7 68 30 115 50 47 21 123 55 168 76 46 22 85 39 87 39 6 0 450 216
590 287 151 76 511 272 699 381 72 41 147 84 166 94 64 36 483 295 597 370
212 138 348 228 398 263 28 20 89 62 137 95 200 137 543 390 753 557 324 257
559 450 710 583 849 750 1494 1421 2138 2227 145 182 465 602 517 680 8 12 56
79 106 150 229 322 589 877 744 1148 322 562 402 710 605 1120 184 373 211
431 367 790 121 278 291 701 363 905 201 567 290 847 414 1295 119 432 232
901 297 1245 78 405 113 621 184 1125 11 79 44 367 60 525 43 414 96 1653 72
1685 -11 15 -22 16 -222 22 -112 3 -204 11 -234 19 -31 9 -100 14 -180 15 -72
0 -167 5 -211 10 -44 6 -204 15 -355 20 -537 18 -673 26 -730 43 -41 12 -76
15 -140 10 -47 -3 -146 0 -220 6 -74 7 -232 16 -350 21 -539 23 -660 29 -880
42 -129 8 -248 19 -263 26 -18 7 -103 11 -230 11 -137 1 -223 5 -267 15 -39 8
-124 15 -210 15 -80 0 -183 7 -230 14 -47 7 -184 14 -305 15 -262 2 -389 19
-421 55 -13 15 -23 44 -27 77 -6 53 7 261 18 278 3 5 11 42 19 83 8 40 24 105
36 143 41 136 55 657 34 1254 -18 494 -25 537 -97 617 -19 22 -38 49 -42 62
-4 13 -26 52 -50 87 -24 35 -53 81 -64 103 -11 22 -38 61 -60 86 -42 48 -53
78 -72 185 -10 55 -9 75 7 138 l18 75 -23 61 c-27 70 -48 151 -56 217 -9 75
-117 236 -200 298 -38 28 -59 54 -87 112 -46 91 -49 141 -13 191 48 66 58 94
63 165 6 97 -10 164 -59 235 -59 87 -372 395 -434 426 -27 14 -94 54 -147 89
-108 71 -100 55 -112 216 -5 69 -26 125 -51 134 -17 7 -51 87 -60 144 -6 34
-17 54 -46 81 -40 37 -58 87 -59 161 0 48 -9 68 -29 68 -32 0 -69 52 -84 118
-12 52 -21 69 -50 93 -36 29 -58 80 -72 163 -4 26 -18 49 -46 75 -33 32 -39
44 -39 78 0 22 3 42 6 46 14 14 54 -27 65 -66 7 -25 30 -61 63 -96 62 -65 71
-81 81 -139 5 -33 12 -43 30 -48 13 -3 31 -14 41 -25 26 -29 72 -32 190 -13
90 14 146 16 324 10 198 -6 220 -5 278 14 58 18 92 20 360 20 215 0 319 4 377
15 44 8 114 14 155 15 41 0 116 6 166 14 72 11 150 12 359 5 159 -4 289 -4
323 2 77 12 163 12 308 -2 104 -10 140 -10 250 5 156 21 174 27 225 67 37 29
44 31 94 25 43 -5 70 -1 130 19 87 28 107 25 151 -28 49 -58 74 -68 182 -74
75 -4 117 -2 168 11 63 16 74 16 129 1 82 -21 141 -19 221 8 66 21 83 22 449
23 306 1 390 4 430 16 40 12 95 14 269 11 l219 -4 -5 38 c-6 38 -82 222 -183
443 -29 63 -63 138 -75 165 -86 196 -394 810 -525 1045 -160 287 -201 358
-265 465 -40 66 -102 170 -138 230 -127 213 -393 619 -619 945 -84 120 -478
648 -553 740 -20 25 -83 104 -140 175 -415 519 -853 998 -1405 1535 -463 451
-980 899 -1475 1279 -180 139 -555 411 -608 443 -24 14 -94 62 -155 107 -131
95 -333 228 -396 261 -38 19 -46 20 -55 8 -29 -40 -95 -49 -144 -21 -40 23
-62 6 -62 -47 0 -27 -7 -45 -26 -64 -15 -14 -31 -26 -35 -26 -5 0 -9 -9 -9
-20 0 -32 -26 -74 -54 -89 -14 -8 -32 -29 -41 -48 -9 -19 -39 -59 -66 -90 -34
-36 -49 -62 -47 -76 3 -21 8 -23 104 -42 43 -9 94 -121 64 -140 -6 -4 -35 16
-65 43 -31 27 -72 54 -93 60 -26 8 -41 20 -50 41 -28 64 -50 139 -62 210 -12
70 -11 74 9 94 12 12 47 29 79 37 67 18 71 37 19 83 -24 20 -38 26 -57 21 -14
-4 -45 -7 -69 -8 -41 0 -47 3 -95 57 -58 66 -90 74 -107 30 -8 -21 -7 -42 5
-85 9 -32 16 -73 16 -92 0 -48 15 -77 54 -103 48 -31 62 -88 47 -194 -7 -47
-9 -108 -5 -147 6 -61 6 -65 -12 -57 -145 62 -170 59 -218 -28 -38 -68 -106
-142 -137 -150 -24 -6 -49 17 -49 47 0 64 -60 69 -129 10 -21 -19 -43 -34 -48
-34 -5 0 -24 -13 -43 -29 -58 -47 -68 -46 -145 10 -39 28 -73 59 -77 70 -17
46 37 116 120 156 36 17 61 37 78 64 l24 39 75 0 c65 0 76 3 89 22 9 12 16 33
16 45 0 16 6 23 18 23 20 0 89 97 116 162 24 57 21 198 -4 250 -48 99 -9 150
109 145 60 -2 61 -1 108 45 48 48 141 92 170 81 7 -3 28 -27 48 -54 19 -27 42
-50 50 -50 8 -1 21 -2 29 -3 25 -2 74 42 86 78 13 39 6 49 -65 98 -68 46 -111
60 -169 53 -28 -4 -86 -2 -128 4 -98 14 -119 6 -147 -54 -25 -53 -48 -65 -126
-65 -30 0 -78 -9 -107 -20 -29 -10 -75 -19 -103 -19 -27 0 -63 -4 -78 -10 -42
-16 -76 -13 -108 10 -43 30 -54 55 -36 83 18 26 113 101 159 125 19 9 43 26
55 38 13 13 40 24 71 28 65 9 73 28 31 71 -26 27 -35 31 -50 21 -14 -9 -29 -7
-66 6 -26 9 -58 17 -70 17 -13 0 -23 5 -23 10 0 6 40 10 100 10 96 0 100 1
117 26 16 26 16 27 -7 46 -65 52 -358 202 -448 229 -36 10 -51 10 -95 -4 -35
-11 -98 -17 -192 -19 -132 -3 -142 -1 -178 21 -42 26 -127 35 -192 21z m113
-182 c18 -18 15 -24 -22 -47 -36 -23 -80 -27 -120 -11 -37 14 -32 28 17 50 48
22 107 26 125 8z m-441 -22 c16 -27 82 -49 127 -43 23 4 56 3 72 -2 27 -7 28
-8 6 -13 -18 -5 -22 -13 -22 -46 0 -41 -17 -64 -57 -76 -46 -14 -79 12 -89 72
-3 15 -16 39 -30 53 -13 14 -21 28 -17 32 3 4 -1 7 -9 7 -9 0 -18 7 -22 15 -7
19 30 21 41 1z m1063 1 c41 -33 43 -45 14 -71 -25 -21 -27 -26 -15 -40 20 -24
2 -38 -28 -23 -40 20 -85 120 -64 140 11 12 77 7 93 -6z m-1870 -685 c0 -17
-47 -33 -86 -30 -34 3 -39 6 -42 31 -7 60 55 82 101 35 15 -16 27 -32 27 -36z
m2036 -413 c9 -15 -16 -116 -31 -129 -29 -24 -90 73 -68 109 16 26 86 40 99
20z m-7358 -275 c7 -2 12 -19 12 -40 0 -41 23 -74 51 -74 19 0 35 -17 25 -28
-18 -18 -74 -2 -106 30 -19 19 -46 41 -58 50 -20 13 -23 22 -17 46 6 29 9 30
43 25 20 -2 43 -6 50 -9z m7032 -56 c0 -13 3 -32 6 -43 8 -31 -18 -59 -45 -50
-20 6 -23 12 -18 42 10 56 57 98 57 51z m-6330 -193 c29 -35 -25 -176 -72
-189 -50 -13 -75 69 -43 138 26 54 89 82 115 51z m-2529 -84 c14 -47 9 -64
-27 -87 -25 -17 -27 -17 -41 2 -8 11 -11 29 -8 44 20 89 56 108 76 41z m2089
-80 c0 -20 -6 -30 -20 -34 -21 -5 -27 14 -14 47 11 27 34 18 34 -13z m5478
-88 c3 -28 -2 -36 -32 -53 -37 -23 -69 -60 -106 -127 -26 -48 -37 -53 -130
-63 -93 -10 -120 5 -120 66 0 39 5 51 33 79 19 19 47 36 63 40 63 13 140 38
164 53 51 33 76 42 100 40 20 -2 26 -9 28 -35z m2568 -64 c35 -19 54 -37 54
-49 0 -22 -47 -80 -65 -80 -7 0 -38 11 -69 25 -62 27 -82 57 -66 99 17 46 72
48 146 5z m-8074 -47 c-9 -26 -23 5 -16 34 l8 29 6 -25 c4 -14 5 -31 2 -38z
m-904 -9 c26 -23 46 -92 31 -110 -12 -14 -73 -28 -104 -24 -11 1 -32 7 -47 13
-38 14 -39 64 -2 107 20 25 34 31 64 31 22 0 47 -7 58 -17z m-1829 -79 c12
-16 21 -41 21 -62 l0 -34 -55 4 c-63 5 -61 4 -70 40 -5 21 -1 33 19 52 32 33
59 33 85 0z m2805 -44 c21 -10 45 -28 53 -40 8 -11 21 -20 29 -20 8 0 14 -9
14 -20 0 -14 -9 -21 -37 -26 -21 -3 -55 -17 -75 -30 -50 -32 -68 -30 -107 10
-40 41 -37 71 9 117 33 34 62 36 114 9z m-2276 -22 c33 -28 -11 -98 -62 -98
-12 0 -46 -9 -76 -20 -60 -23 -87 -20 -131 12 -37 28 -39 68 -4 101 25 22 31
23 143 19 64 -2 123 -9 130 -14z m2871 -14 c44 -56 22 -96 -65 -118 -77 -20
-103 -20 -110 -1 -14 34 87 145 133 145 12 0 31 -12 42 -26z m4217 -115 c9
-16 -48 -92 -82 -108 -16 -7 -38 -22 -49 -32 -49 -44 -145 -65 -145 -31 0 23
23 44 74 67 21 10 52 37 68 59 16 23 37 44 46 48 27 11 80 9 88 -3z m-5873
-81 c12 -7 44 -13 71 -13 47 0 50 -2 59 -32 8 -27 5 -36 -24 -72 -29 -37 -36
-41 -63 -35 -17 4 -34 12 -38 18 -5 8 -11 7 -19 -1 -10 -10 -9 -17 5 -32 10
-11 21 -41 24 -66 5 -53 -15 -85 -55 -85 -18 0 -25 7 -29 30 -4 17 -10 30 -14
30 -17 0 -34 68 -34 142 0 76 2 80 30 103 33 27 56 31 87 13z m8895 -24 c16
-11 22 -24 20 -42 -3 -25 -7 -28 -80 -38 -69 -9 -82 -8 -118 8 -23 11 -40 24
-38 30 6 16 116 55 158 57 20 0 46 -6 58 -15z m-10371 -25 c5 -5 25 -18 44
-27 29 -14 35 -24 43 -66 9 -53 -6 -121 -30 -130 -29 -11 -45 23 -38 84 4 41
3 60 -6 65 -7 4 -16 2 -21 -6 -10 -17 -23 -5 -37 37 -14 44 16 72 45 43z
m2333 -19 c0 -37 -6 -37 -36 -4 -31 32 -30 34 6 34 27 0 30 -3 30 -30z m250 7
c0 -25 -17 -47 -37 -47 -19 0 -29 50 -12 61 26 17 49 10 49 -14z m5678 -109
c7 -7 12 -36 12 -65 0 -49 -2 -55 -32 -73 -44 -27 -96 -35 -130 -21 -15 6 -41
16 -56 22 -25 11 -34 8 -96 -35 -73 -50 -89 -53 -154 -31 -26 9 -83 16 -142
16 -88 1 -100 3 -100 19 0 21 23 42 75 67 46 22 76 20 101 -8 9 -10 23 -19 31
-19 7 0 13 -4 13 -10 0 -17 17 -11 67 23 45 30 53 32 122 29 81 -2 89 1 155
62 31 29 46 36 80 36 23 0 47 -5 54 -12z m-7214 -199 c5 -62 4 -67 -18 -78
-53 -29 -78 9 -61 96 6 32 51 70 67 55 4 -4 9 -37 12 -73z m-200 -69 c12 0 32
-9 46 -20 25 -19 25 -19 5 -34 -11 -9 -44 -30 -73 -47 -51 -30 -54 -31 -86
-15 -19 9 -38 16 -44 16 -5 0 -15 7 -22 15 -10 12 -10 19 -2 27 7 7 12 19 12
28 0 33 22 42 84 36 32 -3 68 -6 80 -6z m290 -56 c19 -19 21 -54 3 -78 -27
-37 -74 21 -60 75 6 23 36 25 57 3z m-736 -16 c12 -12 17 -48 7 -48 -15 0 -55
34 -55 46 0 17 32 18 48 2z m-194 -170 c7 -11 5 -20 -7 -32 -35 -36 -75 -3
-41 35 19 22 32 21 48 -3z m2601 -125 c10 -21 26 -50 36 -65 28 -39 25 -86 -6
-100 -32 -14 -64 1 -90 44 -13 23 -16 43 -12 84 6 63 12 74 36 74 12 0 25 -14
36 -37z m411 -27 c51 -85 57 -149 17 -194 -27 -29 -50 -38 -124 -49 l-36 -5
-7 51 c-10 72 1 117 32 137 14 9 37 30 50 46 18 21 30 27 46 22 11 -4 21 -7
22 -8z m-877 -81 c2 -10 -5 -25 -15 -32 -24 -18 -94 -17 -94 0 0 19 30 44 60
50 36 6 45 3 49 -18z m-1399 -15 c0 -23 -5 -30 -19 -30 -25 0 -32 11 -24 38 3
13 13 22 24 22 14 0 19 -7 19 -30z m-527 -17 c7 -12 -11 -53 -23 -53 -5 0 -10
14 -10 30 0 28 21 42 33 23z m628 -100 c8 -22 6 -30 -18 -55 -14 -15 -33 -28
-40 -28 -22 0 -33 44 -20 79 15 42 62 44 78 4z m168 -311 c21 -39 -40 -112
-94 -112 -36 0 -45 13 -45 61 0 22 8 34 33 49 41 25 93 26 106 2z m-10839
-562 c22 -12 18 -33 -12 -67 -57 -62 -142 -16 -112 61 7 19 93 23 124 6z
m8690 -724 c17 -21 -8 -68 -43 -80 -38 -14 -83 3 -79 29 8 50 93 85 122 51z
m15968 -93 c43 -14 83 -31 90 -36 16 -13 15 -64 -1 -74 -8 -4 -20 -21 -28 -37
-22 -45 -38 -51 -104 -35 -74 18 -100 49 -100 119 0 50 23 90 52 90 8 0 49
-12 91 -27z m-13540 -163 c2 -14 -3 -33 -11 -44 -12 -16 -16 -17 -35 -5 -29
18 -33 33 -15 58 20 30 57 24 61 -9z m-6023 -10 c3 -5 -3 -10 -14 -10 -12 0
-21 5 -21 10 0 6 6 10 14 10 8 0 18 -4 21 -10z m835 -44 c0 -3 -4 -8 -10 -11
-5 -3 -10 -1 -10 4 0 6 5 11 10 11 6 0 10 -2 10 -4z m1320 -341 c0 -15 -7 -28
-17 -32 -10 -4 -22 -12 -28 -19 -5 -6 -20 -14 -32 -17 -33 -7 -29 14 9 57 38
43 68 48 68 11z m1338 -42 c2 -8 -5 -13 -17 -13 -21 0 -35 13 -24 24 10 10 36
3 41 -11z m-1448 -48 c11 -13 8 -15 -15 -15 -23 0 -26 2 -15 15 7 8 14 15 15
15 1 0 8 -7 15 -15z m481 -52 c43 -73 70 -79 143 -32 65 40 74 30 51 -58 -23
-86 -31 -102 -67 -136 -23 -21 -28 -33 -23 -50 13 -39 6 -81 -15 -99 -47 -38
-126 -30 -154 15 -12 18 -10 21 45 104 26 38 26 39 13 106 -8 36 -23 81 -34
99 -23 38 -25 53 -7 73 18 21 23 19 48 -22z m-10154 -28 c27 -19 63 -77 63
-101 0 -33 -44 -77 -91 -91 -72 -21 -123 -15 -207 25 -75 36 -60 90 34 117 31
9 73 27 93 40 42 28 78 31 108 10z m8290 -71 c8 -22 -8 -33 -39 -27 -19 4 -28
12 -28 24 0 24 58 27 67 3z m-2192 -131 c32 -14 70 -46 105 -85 61 -68 145
-114 228 -125 26 -3 66 -17 89 -30 23 -14 75 -33 115 -43 91 -22 109 -30 102
-41 -8 -13 -59 -38 -133 -65 -36 -13 -72 -32 -78 -41 -17 -23 -16 -68 2 -83 8
-6 17 -22 21 -33 3 -12 19 -35 34 -52 37 -39 100 -144 100 -167 0 -9 -10 -23
-22 -29 -60 -32 -88 -64 -88 -99 0 -20 7 -45 15 -57 19 -28 159 -107 258 -147
26 -10 47 -23 47 -28 0 -4 6 -8 14 -8 8 0 21 -8 28 -19 7 -10 38 -30 68 -44
45 -20 65 -24 108 -20 50 5 52 5 52 -19 0 -13 -4 -28 -8 -33 -5 -6 -15 -37
-22 -70 -15 -72 -29 -102 -64 -134 -14 -14 -26 -31 -26 -40 0 -12 -3 -12 -12
-3 -20 20 -38 14 -92 -27 -28 -21 -63 -41 -77 -44 -43 -11 -93 -50 -112 -90
-10 -20 -24 -37 -32 -37 -7 0 -15 -12 -18 -27 -8 -37 -58 -60 -94 -44 -22 10
-25 16 -20 48 4 19 13 43 22 53 8 9 15 33 15 53 l0 37 -47 0 c-45 0 -102 -15
-130 -33 -9 -5 -12 -31 -11 -74 1 -59 -1 -68 -23 -85 -13 -11 -42 -36 -63 -54
-22 -19 -46 -32 -54 -29 -7 3 -18 5 -22 5 -14 0 -58 81 -68 126 -8 36 -5 49
19 100 39 82 38 107 -7 134 -23 15 -44 41 -61 76 -13 29 -35 60 -48 68 -13 9
-42 46 -65 83 -22 38 -55 89 -73 114 -17 26 -40 60 -49 77 -18 34 -72 72 -101
72 -28 0 -67 30 -67 52 0 15 4 18 18 13 30 -12 147 -18 204 -11 48 6 62 14
102 52 58 55 86 100 86 140 0 45 -44 149 -83 194 -24 28 -40 64 -56 122 -13
46 -31 99 -42 118 -10 19 -28 56 -39 83 -10 26 -40 69 -64 95 -47 50 -65 104
-52 156 8 31 22 35 131 28 64 -4 104 -12 140 -29z m2373 28 c11 -7 10 -10 -3
-15 -39 -15 -98 -2 -78 18 9 9 66 7 81 -3z m-8800 -91 c13 0 11 -4 -6 -20 -12
-12 -22 -25 -22 -30 0 -6 -7 -10 -16 -10 -12 0 -15 6 -10 23 3 12 6 28 6 36 0
8 6 11 16 7 9 -3 23 -6 32 -6z m10150 -87 c11 -16 22 -41 25 -58 3 -16 10 -48
16 -70 6 -22 11 -55 11 -72 0 -32 -1 -33 -46 -33 -58 0 -76 10 -113 64 -30 44
-35 63 -33 128 2 30 8 40 30 52 45 25 88 20 110 -11z m-2239 -4 c36 -13 46
-28 56 -87 12 -77 -20 -121 -79 -106 -16 4 -33 0 -48 -10 -31 -22 -45 -20 -64
9 -11 17 -13 29 -6 38 5 6 13 28 17 47 12 57 42 108 67 113 13 2 23 5 24 6 1
0 15 -4 33 -10z m12654 -69 c129 -78 159 -85 230 -49 23 12 63 41 88 65 68 63
102 47 130 -58 13 -47 12 -48 -16 -78 -28 -29 -30 -30 -130 -30 -81 0 -108 4
-140 20 -53 27 -117 25 -215 -6 -45 -14 -87 -23 -94 -21 -19 7 -66 102 -66
131 0 30 55 96 80 96 9 0 69 -31 133 -70z m-13305 28 c13 -16 42 -115 36 -121
-8 -8 -44 5 -44 15 0 5 -9 21 -20 35 -20 25 -26 63 -13 76 10 11 30 8 41 -5z
m2288 -123 c43 -13 53 -21 83 -70 26 -42 32 -61 26 -82 -9 -37 -20 -43 -87
-43 -31 0 -68 -4 -82 -10 -23 -8 -28 -6 -41 21 -9 16 -31 44 -49 62 -54 52
-70 99 -44 125 17 17 134 15 194 -3z m12791 -107 c-3 -8 -6 -5 -6 6 -1 11 2
17 5 13 3 -3 4 -12 1 -19z m-14719 -13 c8 -8 -12 -54 -34 -80 -16 -19 -24 -40
-24 -67 0 -22 -5 -49 -11 -60 -10 -19 -17 -20 -97 -13 -48 4 -96 12 -107 17
-29 15 -75 60 -75 73 0 18 42 52 74 59 17 4 45 21 63 37 27 23 43 29 81 29 26
0 54 5 62 10 13 9 58 5 68 -5z m10321 -136 c51 -63 73 -66 139 -17 27 19 52
12 111 -30 32 -24 41 -25 144 -23 74 1 117 7 130 16 21 15 38 11 81 -18 26
-18 28 -24 21 -61 -3 -23 -6 -49 -6 -60 0 -27 39 -66 89 -87 35 -15 43 -23 40
-41 -6 -41 -45 -49 -234 -51 -162 -2 -177 -4 -190 -22 -25 -33 -11 -40 83 -41
l90 -1 49 -48 49 -49 105 -10 c58 -5 139 -10 181 -10 68 -1 80 2 120 29 43 29
46 30 164 29 66 -1 173 -9 238 -18 88 -13 150 -15 241 -10 112 6 127 5 182
-16 88 -33 187 -30 344 10 165 43 169 44 295 31 85 -9 120 -17 160 -38 40 -22
64 -27 125 -28 41 -1 115 -7 165 -14 l90 -12 66 34 65 35 55 -29 c50 -27 62
-29 165 -29 190 0 272 -27 266 -86 -2 -16 -17 -60 -34 -97 -36 -79 -88 -129
-151 -147 -29 -8 -227 -13 -657 -16 -522 -5 -624 -8 -675 -21 -50 -14 -134
-17 -500 -20 -242 -1 -446 -6 -455 -9 -24 -10 -627 -24 -1485 -34 -440 -6
-834 -12 -875 -14 -41 -2 -169 -8 -285 -13 -139 -7 -225 -15 -255 -26 -25 -8
-83 -17 -130 -20 -47 -3 -159 -11 -250 -17 -129 -8 -851 -29 -1120 -32 -120
-1 -291 -22 -360 -43 -92 -29 -271 -43 -730 -55 -180 -4 -341 -13 -360 -19
-19 -6 -71 -14 -115 -17 -44 -4 -104 -15 -133 -25 -70 -24 -268 -42 -418 -37
-102 2 -125 6 -143 22 -11 10 -18 22 -16 27 3 4 31 17 63 29 32 12 75 38 97
60 45 43 180 101 280 119 33 6 85 18 115 26 30 9 120 20 200 25 139 10 299 39
440 80 54 16 98 19 257 19 203 0 270 8 399 46 127 39 219 55 306 55 123 0 371
29 440 51 39 12 89 19 139 19 52 0 98 7 136 20 79 27 165 39 318 46 72 3 162
12 201 20 48 10 116 14 206 12 l135 -3 46 43 47 42 147 1 c82 0 168 4 193 9
187 36 177 35 229 16 42 -15 69 -17 178 -11 70 4 187 14 258 22 72 9 148 15
170 14 85 -4 582 -1 625 5 51 6 93 33 82 51 -9 14 -190 43 -267 43 -42 0 -56
5 -75 25 -13 14 -34 25 -47 25 -40 0 -63 33 -63 93 1 88 17 179 37 197 10 9
37 22 60 29 26 7 47 21 54 34 36 69 72 74 118 16z m-514 -10 c8 -13 -3 -79
-13 -79 -4 0 -23 14 -41 31 -34 31 -33 43 4 52 34 8 44 7 50 -4z m-9499 -73
c19 -14 18 -15 -6 -41 -14 -14 -40 -34 -59 -42 -33 -16 -34 -16 -52 6 -25 30
-24 37 6 66 28 29 80 33 111 11z m9002 5 c17 -10 12 -51 -8 -62 -8 -5 -28 -14
-44 -19 -26 -10 -28 -13 -21 -48 9 -49 18 -57 65 -57 26 0 46 8 63 23 29 27
54 28 81 3 46 -42 79 -33 120 32 14 20 26 27 52 27 18 0 37 -6 41 -13 4 -8 23
-22 40 -32 26 -15 35 -17 45 -7 24 24 58 14 74 -23 20 -49 18 -80 -11 -125
l-25 -40 -99 0 c-61 0 -116 -6 -147 -16 -27 -8 -101 -18 -164 -21 -87 -4 -123
-10 -148 -24 -47 -27 -86 -24 -137 11 -25 17 -57 30 -74 30 -35 0 -44 28 -13
37 11 2 32 25 47 49 16 25 39 56 51 69 13 14 31 48 41 75 15 42 22 50 43 50
18 0 29 8 38 30 25 55 56 73 90 51z m-8396 -34 c-5 -37 -38 -111 -57 -127 -40
-33 -60 51 -30 124 15 34 18 37 53 34 34 -3 37 -5 34 -31z m3168 -58 c0 -5 -4
-9 -10 -9 -5 0 -10 7 -10 16 0 8 5 12 10 9 6 -3 10 -10 10 -16z m10504 1 c63
-10 88 -24 80 -45 -9 -22 -62 -35 -146 -35 -123 0 -174 34 -120 78 19 14 104
16 186 2z m-8297 -77 c32 -46 32 -46 14 -72 -11 -14 -44 -53 -74 -87 -32 -34
-58 -73 -60 -90 -3 -16 -3 34 0 111 5 156 15 185 61 185 21 0 34 -11 59 -47z
m-5598 5 c35 -33 96 -68 118 -68 13 0 21 -15 37 -67 6 -18 1 -23 -27 -32 -44
-15 -92 2 -110 37 -9 20 -23 29 -52 34 -100 18 -106 20 -121 51 -12 23 -13 35
-5 53 9 21 17 24 68 24 51 0 62 -4 92 -32z m-223 -8 c8 0 14 -6 14 -13 0 -13
-4 -15 -82 -55 -33 -17 -47 -31 -51 -50 -5 -21 -18 -33 -68 -55 -60 -27 -89
-29 -89 -6 0 14 107 119 122 119 5 0 27 13 47 29 42 33 61 41 79 35 8 -2 20
-4 28 -4z m11694 -75 c0 -21 -5 -25 -29 -25 -33 0 -44 11 -35 34 4 10 18 16
35 16 24 0 29 -4 29 -25z m-9550 -60 c34 -18 39 -48 13 -77 -30 -34 -76 -17
-115 43 -12 20 -14 29 -5 38 16 16 73 14 107 -4z m4083 -149 c7 -18 -1 -26
-25 -26 -11 0 -18 7 -18 20 0 23 35 28 43 6z m7877 -160 c22 -15 61 -31 88
-36 177 -36 193 -41 293 -95 63 -35 125 -61 159 -67 30 -6 80 -19 111 -29 31
-11 63 -19 71 -19 8 0 42 -17 74 -38 33 -21 98 -54 144 -73 67 -27 98 -46 145
-92 33 -33 78 -67 100 -77 116 -51 139 -67 239 -166 58 -57 106 -108 106 -113
0 -16 -57 -23 -81 -11 -12 7 -31 23 -43 37 -15 17 -42 29 -86 39 -39 9 -89 31
-125 54 -33 22 -90 51 -128 64 -37 14 -85 37 -106 50 -36 23 -216 66 -275 66
-13 0 -45 12 -72 26 -57 30 -206 81 -279 95 -27 5 -61 18 -76 28 -14 10 -60
28 -104 40 -43 12 -104 37 -134 56 -43 27 -67 35 -103 35 -56 0 -167 25 -216
48 -22 10 -39 28 -45 45 -14 43 11 71 90 101 37 14 82 35 98 46 40 26 103 21
155 -14z m-15859 -308 c40 -43 49 -68 49 -133 0 -49 2 -54 29 -63 20 -7 30
-19 35 -42 10 -52 7 -107 -6 -118 -20 -15 -55 3 -73 37 -29 56 -86 67 -131 26
-31 -29 -29 -28 -54 -15 -32 17 -72 101 -82 175 -5 39 -12 86 -15 106 -4 33
-2 37 22 43 15 4 46 4 69 1 22 -4 52 -2 66 4 42 17 60 12 91 -21z m1397 -70
c17 -17 15 -55 -4 -62 -24 -9 -34 2 -34 40 0 35 16 44 38 22z m205 -108 c3
-10 -1 -26 -7 -35 -10 -14 -14 -15 -24 -3 -14 17 -5 58 13 58 7 0 15 -9 18
-20z m-929 -156 c4 -10 14 -12 31 -8 61 15 115 -25 115 -86 0 -52 -31 -74 -87
-64 -53 9 -65 21 -57 56 7 34 -21 64 -43 46 -14 -12 -43 -4 -43 12 0 5 6 10
13 10 6 0 18 13 25 29 13 31 35 33 46 5z m-290 -197 c14 -10 16 -18 8 -33 -5
-10 -15 -32 -21 -48 -9 -22 -15 -26 -23 -18 -7 7 -30 12 -53 12 -23 0 -50 6
-60 14 -16 12 -17 17 -6 44 9 21 21 32 39 35 57 9 99 6 116 -6z m22290 -93
c23 -9 20 -46 -7 -85 -21 -32 -27 -34 -82 -37 -85 -3 -98 -7 -146 -48 -41 -34
-45 -35 -98 -29 -64 7 -153 -12 -205 -45 -39 -24 -105 -26 -145 -5 -37 19
-101 93 -101 117 0 26 40 33 160 30 190 -5 204 -5 298 16 66 14 111 31 150 56
46 28 67 35 109 36 28 0 58 -3 67 -6z m-22807 -66 c6 -7 16 -37 24 -66 16 -63
6 -86 -38 -90 -42 -4 -67 35 -60 94 2 24 10 51 17 59 15 18 44 20 57 3z
m18961 -2724 c4 -28 -21 -59 -43 -51 -13 6 -16 14 -10 34 11 45 47 56 53 17z
m-134 -137 c17 -12 66 -162 66 -202 0 -31 30 -54 91 -70 56 -15 76 -32 86 -75
3 -14 32 -68 63 -120 31 -52 63 -118 69 -147 9 -35 26 -67 51 -96 21 -24 59
-87 84 -140 25 -52 50 -98 55 -101 5 -3 35 -58 66 -121 l58 -116 -7 -76 c-3
-45 -19 -111 -37 -162 -17 -47 -39 -110 -50 -139 -10 -30 -25 -105 -34 -169
-8 -63 -26 -151 -40 -194 -14 -44 -25 -88 -25 -98 0 -10 -11 -55 -25 -101 -17
-57 -25 -108 -25 -159 0 -57 -7 -94 -26 -146 -14 -38 -32 -110 -39 -160 -8
-49 -21 -121 -29 -160 -9 -38 -16 -99 -16 -135 0 -92 -17 -183 -45 -250 -26
-62 -61 -261 -75 -420 -6 -69 -16 -116 -39 -172 -35 -89 -51 -173 -51 -274 0
-41 -8 -99 -19 -135 -10 -35 -26 -95 -35 -134 -12 -50 -25 -78 -45 -99 l-30
-29 -57 16 c-56 16 -60 16 -99 -3 -80 -39 -135 -80 -160 -120 -14 -23 -62 -80
-107 -128 -82 -88 -129 -150 -205 -269 -23 -37 -53 -78 -66 -92 -13 -14 -35
-42 -48 -62 -13 -20 -90 -105 -171 -190 -81 -85 -157 -167 -169 -184 -13 -16
-52 -61 -87 -99 -35 -38 -77 -89 -93 -115 -16 -25 -78 -95 -137 -156 -59 -60
-115 -121 -124 -135 -9 -14 -77 -88 -151 -166 -135 -141 -157 -175 -183 -278
-3 -13 -20 -42 -38 -63 -18 -21 -47 -64 -65 -95 -60 -107 -69 -77 -61 197 4
121 3 265 -3 320 -10 116 -4 566 12 737 6 64 15 186 21 270 6 84 18 209 26
278 19 160 30 723 16 845 -6 50 -16 142 -22 205 -6 63 -20 187 -30 275 -11 88
-24 203 -31 255 -6 52 -19 136 -29 185 -10 50 -21 119 -25 155 -3 36 -15 119
-27 185 -38 227 -30 626 18 789 21 72 17 148 -10 235 -14 42 -30 98 -37 125
-7 27 -25 63 -39 80 -31 35 -62 93 -80 151 -7 22 -25 54 -40 71 -14 17 -37 59
-50 95 -13 35 -38 89 -55 119 -18 30 -55 93 -83 140 -27 47 -64 112 -82 145
-18 33 -38 67 -45 75 -7 8 -38 65 -70 127 -53 104 -57 114 -46 141 32 76 124
124 238 123 42 0 97 4 122 10 25 6 105 12 176 14 91 2 154 10 209 24 44 12
100 21 125 21 25 0 82 7 126 15 49 9 148 14 255 15 96 0 240 5 320 10 80 5
264 12 410 15 285 6 303 9 397 49 45 19 92 28 168 35 59 5 109 12 113 15 10
11 58 6 76 -7z"/>
<path d="M21066 25697 c-24 -17 -16 -43 18 -59 33 -14 58 5 54 41 -4 31 -42
40 -72 18z"/>
<path d="M21291 25696 c-22 -27 4 -56 49 -56 37 0 40 2 40 29 0 17 -6 31 -16
35 -27 10 -61 7 -73 -8z"/>
<path d="M21474 25696 c-3 -8 -4 -25 -2 -38 2 -18 10 -24 34 -26 38 -4 59 18
50 53 -5 21 -12 25 -42 25 -21 0 -37 -6 -40 -14z"/>
<path d="M27375 20829 c-22 -22 -62 -52 -90 -67 l-50 -27 -3 -95 c-4 -126 4
-177 33 -206 32 -32 78 -31 140 5 57 33 217 170 241 206 25 38 28 95 7 134
-22 43 -123 90 -193 91 -41 0 -50 -5 -85 -41z"/>
<path d="M28145 19555 c-11 -13 -23 -24 -27 -25 -4 0 -24 -16 -45 -35 -21 -19
-45 -35 -53 -35 -26 0 -39 -21 -51 -83 -10 -46 -17 -60 -35 -67 -13 -5 -30
-25 -38 -45 -8 -19 -20 -35 -25 -35 -7 0 -11 -35 -11 -94 0 -73 3 -96 16 -107
38 -31 94 55 94 144 0 55 1 58 23 55 20 -3 23 -11 29 -73 19 -187 50 -283 83
-255 14 12 35 -6 35 -30 0 -9 4 -20 9 -25 6 -6 12 -39 14 -75 3 -53 3 -48 5
31 1 52 6 99 10 105 18 20 31 95 37 209 3 66 8 155 12 198 6 86 -9 174 -37
217 -10 14 -19 30 -21 37 -3 8 -11 3 -24 -12z m-135 -291 c0 -8 -5 -12 -10 -9
-6 4 -8 11 -5 16 9 14 15 11 15 -7z"/>
<path d="M27470 19180 c0 -5 -10 -10 -21 -10 -21 0 -21 -4 -17 -65 3 -36 10
-71 16 -78 6 -6 10 -61 11 -122 0 -60 5 -134 11 -164 19 -103 8 -260 -23 -299
-17 -22 -44 14 -50 66 -3 26 -10 85 -16 132 -6 47 -13 111 -17 143 -5 50 -9
59 -30 67 -13 5 -24 14 -24 20 0 5 -16 10 -36 10 -32 0 -139 45 -171 72 -23
18 -59 -15 -67 -61 -3 -23 -10 -41 -15 -41 -16 0 -39 -81 -56 -195 -9 -60 -21
-132 -26 -160 -5 -27 -10 -128 -9 -225 0 -210 -18 -558 -31 -582 -5 -10 -5
-19 1 -23 6 -3 10 -15 10 -25 0 -38 126 100 171 186 23 43 46 84 53 89 11 10
24 35 48 93 18 45 40 41 56 -10 7 -23 24 -53 38 -66 13 -14 24 -29 24 -33 0
-17 57 -9 82 11 14 10 33 41 43 67 10 26 28 59 41 73 12 14 27 44 33 68 5 24
16 51 24 60 13 15 30 80 58 222 28 140 31 196 26 423 -5 226 -7 240 -31 292
-18 40 -30 55 -45 55 -11 0 -23 5 -26 10 -3 6 -13 10 -21 10 -8 0 -14 -4 -14
-10z"/>
<path d="M26388 19064 c-42 -22 -61 -70 -83 -207 -12 -77 31 -483 66 -618 10
-42 46 -467 59 -714 15 -277 35 -384 71 -385 22 0 50 54 64 125 9 44 27 127
40 185 13 58 29 130 34 160 5 30 15 68 21 85 6 16 18 100 25 185 8 85 19 191
25 235 20 152 23 274 11 363 -27 187 -32 219 -53 287 -20 67 -40 109 -63 130
-24 22 -65 84 -65 98 0 8 -17 31 -37 51 -41 39 -71 45 -115 20z"/>
<path d="M17043 32340 c-24 -3 -44 -8 -47 -11 -2 -2 -18 -35 -36 -73 -18 -37
-43 -78 -56 -89 -13 -11 -24 -27 -24 -35 0 -8 20 -39 45 -69 27 -33 47 -69 51
-91 10 -63 15 -73 45 -91 28 -17 67 -64 90 -108 15 -28 59 -31 81 -5 25 28 28
96 8 180 -10 42 -21 104 -25 137 -4 33 -12 71 -17 85 -6 14 -15 54 -22 89 -14
76 -31 91 -93 81z"/>
<path d="M25493 32323 c-7 -2 -13 -18 -13 -33 0 -19 -7 -33 -20 -40 -61 -33
43 -91 115 -64 20 8 46 59 39 77 -4 12 -94 69 -105 66 -2 0 -10 -3 -16 -6z"/>
<path d="M16780 32280 c0 -25 4 -30 25 -30 14 0 28 7 31 15 8 20 -13 45 -37
45 -14 0 -19 -7 -19 -30z"/>
<path d="M16689 31927 c-28 -13 -57 -45 -102 -112 -21 -31 -27 -52 -27 -96 0
-38 -5 -61 -15 -69 -8 -7 -15 -19 -15 -27 0 -8 -16 -47 -35 -87 -48 -100 -47
-119 8 -133 23 -6 67 -11 97 -12 66 -2 117 -17 144 -43 14 -13 32 -18 55 -16
51 4 76 51 76 143 0 63 -4 76 -33 123 -40 61 -53 128 -28 138 8 3 25 25 37 49
18 37 20 47 10 76 -22 64 -107 96 -172 66z"/>
<path d="M17290 31737 c-21 -11 -25 -20 -24 -58 0 -27 10 -65 25 -95 24 -49
24 -49 78 -52 90 -5 140 29 126 85 -6 26 -57 97 -85 120 -20 16 -88 16 -120 0z"/>
<path d="M14828 31545 c-2 -3 -40 -12 -84 -21 -85 -17 -114 -35 -114 -69 0
-27 26 -51 71 -67 19 -6 61 -29 93 -50 43 -27 71 -38 98 -38 30 0 77 13 97 27
2 1 -17 25 -42 52 -26 28 -48 58 -48 68 -5 76 -18 103 -49 103 -9 0 -19 -2
-22 -5z"/>
<path d="M16031 31484 c-12 -15 -21 -39 -21 -55 0 -20 -10 -35 -35 -55 -36
-27 -44 -51 -23 -72 21 -21 39 -13 54 23 20 50 47 46 68 -8 9 -23 16 -55 16
-70 0 -51 21 -116 40 -122 27 -9 112 15 138 38 39 36 30 78 -27 127 -27 24
-58 59 -68 79 -39 76 -64 111 -92 126 -28 14 -31 14 -50 -11z"/>
<path d="M16641 31293 c-54 -54 -56 -55 -88 -36 -26 14 -32 15 -50 2 -20 -14
-20 -16 -4 -35 18 -23 76 -54 101 -54 9 0 27 -11 40 -25 21 -22 22 -29 12 -45
-13 -22 -16 -69 -4 -86 4 -6 17 -13 29 -16 29 -8 48 37 40 95 -5 34 -1 47 18
73 22 29 49 130 38 146 -2 5 -27 8 -54 8 -42 0 -55 -5 -78 -27z"/>
<path d="M16242 30838 c-19 -19 -14 -28 12 -28 32 0 42 16 18 29 -13 7 -22 7
-30 -1z"/>
<path d="M19340 30032 c0 -10 5 -23 12 -30 7 -7 19 -31 28 -55 18 -50 45 -60
71 -26 25 32 24 84 -1 109 -27 27 -110 29 -110 2z"/>
<path d="M14525 29801 c-127 -58 -139 -141 -26 -175 134 -40 256 -25 286 35
25 47 16 78 -30 105 -99 59 -157 68 -230 35z"/>
<path d="M20178 29353 c-9 -2 -28 -28 -43 -57 -15 -30 -41 -67 -59 -83 -31
-30 -96 -149 -96 -177 0 -25 -18 -28 -78 -15 -83 18 -99 36 -107 122 -9 89
-28 129 -58 125 -12 -2 -26 -12 -32 -23 -5 -11 -20 -37 -32 -56 -20 -32 -23
-50 -23 -138 0 -97 1 -102 23 -110 13 -5 29 -16 36 -25 7 -9 22 -16 32 -16 23
0 67 -19 98 -42 16 -12 41 -18 77 -18 29 0 65 -5 81 -11 15 -6 69 -19 118 -29
71 -15 95 -25 113 -45 28 -33 28 -41 -8 -94 -17 -24 -30 -57 -30 -73 0 -16
-11 -51 -25 -78 -35 -69 -34 -128 3 -162 35 -35 72 -48 131 -48 44 0 52 4 84
39 38 42 48 76 44 151 -2 40 1 45 21 48 14 2 24 -3 28 -15 13 -41 33 -80 55
-107 99 -118 106 -122 132 -82 22 33 30 86 18 117 -5 15 -37 55 -71 90 -49 52
-60 68 -55 89 3 14 6 45 7 69 2 50 -25 81 -71 81 -31 0 -86 32 -100 58 -5 10
-14 46 -20 78 -5 32 -15 73 -21 89 -6 17 -15 64 -19 106 -5 42 -21 109 -36
149 -23 61 -33 74 -61 86 -18 8 -35 13 -36 13 -2 -1 -10 -3 -20 -6z"/>
<path d="M6711 29001 c-13 -4 -33 -18 -44 -32 -16 -23 -17 -30 -7 -50 25 -47
114 -121 184 -154 39 -18 83 -46 99 -63 29 -32 72 -45 142 -41 22 1 59 -1 82
-5 72 -13 142 15 218 85 51 48 65 68 65 90 0 37 -29 53 -94 51 -33 -1 -59 -8
-78 -22 -55 -41 -73 -42 -115 -9 -51 42 -80 55 -133 63 -25 4 -67 20 -95 35
-82 46 -170 67 -224 52z"/>
<path d="M14042 28069 c2 -22 9 -35 19 -37 14 -2 16 3 10 29 -9 46 -33 52 -29
8z"/>
<path d="M12976 27994 c-20 -52 5 -104 50 -104 15 0 24 -6 24 -15 0 -8 7 -15
15 -15 24 0 18 58 -10 107 -27 45 -67 59 -79 27z"/>
<path d="M13550 27820 c-11 -11 -20 -25 -20 -30 0 -18 24 -54 68 -100 l42 -46
-46 -54 c-76 -90 -84 -139 -30 -192 40 -40 56 -68 56 -102 0 -14 1 -26 3 -26
1 0 39 -3 84 -6 79 -6 84 -5 115 21 44 37 68 95 68 164 0 55 -1 58 -46 96 -49
42 -70 57 -122 90 -30 19 -32 23 -27 67 6 49 -8 89 -40 122 -23 23 -81 20
-105 -4z"/>
<path d="M10293 27623 c-8 -3 -13 -23 -13 -49 0 -107 110 -181 148 -101 31 65
-23 158 -90 156 -18 0 -39 -3 -45 -6z"/>
</g>
</svg>
